<svg width="174" height="56" viewBox="0 0 174 56" fill="none" xmlns="http://www.w3.org/2000/svg">
<rect width="174" height="56" rx="10" fill="url(#paint0_radial_1842_1588)"/>
<path d="M53.9801 35H58.0441C60.6201 35 61.9801 33.64 61.9801 31.656C61.9801 29.928 60.9241 28.968 59.7721 28.664C60.5401 28.328 61.2601 27.544 61.2601 26.376C61.2601 24.84 60.0601 23.64 58.1401 23.64H53.9801V35ZM56.1721 33.08V29.752H57.8841C59.1961 29.752 59.8041 30.44 59.8041 31.432C59.8041 32.44 59.1961 33.08 57.9161 33.08H56.1721ZM56.1721 28.056V25.56H57.6761C58.6521 25.56 59.1481 26.008 59.1481 26.792C59.1481 27.528 58.6681 28.056 57.7081 28.056H56.1721ZM71.1169 26.68H68.9729V31.224C68.9729 32.44 68.3009 33.24 67.1969 33.24C66.0769 33.24 65.4209 32.44 65.4209 31.224V26.68H63.2769V31.576C63.2769 34.104 64.7169 35.16 66.4289 35.16C67.6769 35.16 68.5089 34.6 68.9729 33.864V35H71.1169V26.68ZM74.2817 38.04H76.3777L77.6737 35L81.1777 26.68H78.9697L76.6817 32.456L74.3777 26.68H72.1857L75.6417 34.92L74.2817 38.04ZM85.5426 35H87.7346V27.24H87.8146L93.0306 35H95.2226V23.64H93.0306V31.4H92.9506L87.7346 23.64H85.5426V35ZM100.839 35.16C102.999 35.16 105.223 33.656 105.223 30.84C105.223 28.024 102.999 26.52 100.839 26.52C98.6631 26.52 96.4551 28.024 96.4551 30.84C96.4551 33.656 98.6631 35.16 100.839 35.16ZM98.5671 30.84C98.5671 29.352 99.6391 28.456 100.839 28.456C102.039 28.456 103.095 29.352 103.095 30.84C103.095 32.328 102.039 33.224 100.839 33.224C99.6391 33.224 98.5671 32.328 98.5671 30.84ZM114.556 35H116.524L119.58 26.68H117.452L115.5 32.44L113.468 26.68H111.5L109.468 32.44L107.532 26.68H105.404L108.46 35H110.428L112.492 29.368L114.556 35Z" fill="white"/>
<defs>
<radialGradient id="paint0_radial_1842_1588" cx="0" cy="0" r="1" gradientUnits="userSpaceOnUse" gradientTransform="translate(48.8015 48.1969) rotate(-34.8534) scale(84.3372 152.377)">
<stop stop-color="#3E67FF"/>
<stop offset="1" stop-color="#E47298"/>
</radialGradient>
</defs>
</svg>
