<svg width="40" height="40" viewBox="0 0 40 40" fill="none" xmlns="http://www.w3.org/2000/svg">
<path d="M25.4864 0.00381842H23.6776H21.662C20.4639 -0.0323215 19.2719 0.188425 18.1662 0.651222C17.0605 1.11402 16.0667 1.80814 15.2515 2.68694C14.4364 3.56574 13.8188 4.60885 13.4403 5.74616C13.0617 6.88347 12.9311 8.08864 13.057 9.28065V11.8647C13.057 12.0361 12.9889 12.2004 12.8678 12.3215C12.7466 12.4427 12.5823 12.5107 12.411 12.5107H11.5841C10.8987 12.5107 10.2415 12.783 9.75686 13.2676C9.27225 13.7522 9 14.4095 9 15.0948V17.6789C9 18.3642 9.27225 19.0215 9.75686 19.5061C10.2415 19.9907 10.8987 20.263 11.5841 20.263H12.411C12.5823 20.263 12.7466 20.331 12.8678 20.4522C12.9889 20.5733 13.057 20.7377 13.057 20.909V34.0103C13.0637 34.5359 13.2755 35.0381 13.6472 35.4098C14.0189 35.7815 14.5211 35.9933 15.0467 36H19.9306C20.4584 36 20.9645 35.7904 21.3376 35.4172C21.7107 35.0441 21.9204 34.538 21.9204 34.0103V21.0899C21.9204 20.9185 21.9884 20.7542 22.1096 20.6331C22.2307 20.5119 22.3951 20.4439 22.5664 20.4439H23.6776C24.3629 20.4439 25.0202 20.1716 25.5048 19.687C25.9894 19.2024 26.2616 18.5451 26.2616 17.8598V15.2757C26.2616 14.5904 25.9894 13.9331 25.5048 13.4485C25.0202 12.9639 24.3629 12.6916 23.6776 12.6916H22.5664C22.3951 12.6916 22.2307 12.6236 22.1096 12.5024C21.9884 12.3813 21.9204 12.2169 21.9204 12.0456V10.0559C21.9204 7.91109 22.5664 7.91109 23.8068 7.91109H25.4347C26.1483 7.90911 26.8334 7.63134 27.3469 7.13587C27.8471 6.62543 28.1257 5.93828 28.1222 5.22365V2.76878C28.1474 2.41014 28.0976 2.05017 27.9758 1.7119C27.854 1.37362 27.6629 1.06448 27.4149 0.804248C27.1668 0.544013 26.8671 0.33841 26.5351 0.200583C26.203 0.062756 25.8458 -0.00426052 25.4864 0.00381842Z" fill="white"/>
</svg>
