<svg width="40" height="40" viewBox="0 0 40 40" fill="none" xmlns="http://www.w3.org/2000/svg">
<g opacity="0.5">
<path d="M20.0012 14.7932C17.134 14.7932 14.7941 17.133 14.7941 20.0002C14.7941 22.8674 17.134 25.2072 20.0012 25.2072C22.8683 25.2072 25.2082 22.8674 25.2082 20.0002C25.2082 17.133 22.8683 14.7932 20.0012 14.7932ZM35.6183 20.0002C35.6183 17.8439 35.6379 15.7072 35.5168 13.5549C35.3957 11.0549 34.8254 8.83612 32.9973 7.008C31.1652 5.17597 28.9504 4.60956 26.4504 4.48847C24.2941 4.36737 22.1574 4.3869 20.0051 4.3869C17.8488 4.3869 15.7121 4.36737 13.5598 4.48847C11.0598 4.60956 8.84101 5.17987 7.01288 7.008C5.18085 8.84003 4.61444 11.0549 4.49335 13.5549C4.37226 15.7111 4.39179 17.8478 4.39179 20.0002C4.39179 22.1525 4.37226 24.2932 4.49335 26.4455C4.61444 28.9455 5.18476 31.1642 7.01288 32.9924C8.84491 34.8244 11.0598 35.3908 13.5598 35.5119C15.716 35.633 17.8527 35.6135 20.0051 35.6135C22.1613 35.6135 24.298 35.633 26.4504 35.5119C28.9504 35.3908 31.1691 34.8205 32.9973 32.9924C34.8293 31.1603 35.3957 28.9455 35.5168 26.4455C35.6418 24.2932 35.6183 22.1564 35.6183 20.0002ZM20.0012 28.0119C15.5676 28.0119 11.9894 24.4338 11.9894 20.0002C11.9894 15.5666 15.5676 11.9885 20.0012 11.9885C24.4348 11.9885 28.0129 15.5666 28.0129 20.0002C28.0129 24.4338 24.4348 28.0119 20.0012 28.0119ZM28.341 13.5314C27.3059 13.5314 26.4699 12.6955 26.4699 11.6603C26.4699 10.6252 27.3059 9.78925 28.341 9.78925C29.3762 9.78925 30.2121 10.6252 30.2121 11.6603C30.2124 11.9061 30.1642 12.1496 30.0703 12.3767C29.9764 12.6039 29.8386 12.8103 29.6648 12.9841C29.4909 13.1579 29.2846 13.2957 29.0574 13.3896C28.8303 13.4836 28.5868 13.5317 28.341 13.5314Z" fill="white"/>
</g>
</svg>
