<svg width="174" height="56" viewBox="0 0 174 56" fill="none" xmlns="http://www.w3.org/2000/svg">
<rect x="0.380762" y="0.380762" width="173.238" height="55.2385" rx="9.61924" fill="#FF1F1F" fill-opacity="0.11" stroke="url(#paint0_radial_1842_1584)" stroke-width="0.761525"/>
<path d="M29.04 35H31.376L28.72 30.872C30.032 30.312 30.816 29.128 30.816 27.496C30.816 25.176 29.216 23.64 26.8 23.64H22.816V35H25.008V31.24H26.704L29.04 35ZM25.008 29.336V25.656H26.576C27.776 25.656 28.592 26.184 28.592 27.496C28.592 28.824 27.776 29.336 26.576 29.336H25.008ZM35.8926 35.16C37.3646 35.16 38.5646 34.552 39.2526 33.688L38.2766 32.648C37.6686 33.176 36.9486 33.4 36.1326 33.4C34.8846 33.4 33.8926 32.808 33.5886 31.672H39.8126C40.2766 28.008 37.8766 26.52 35.7646 26.52C33.6366 26.52 31.5566 28.04 31.5566 30.84C31.5566 33.608 33.6046 35.16 35.8926 35.16ZM33.5566 30.104C33.8286 28.904 34.7886 28.328 35.7806 28.328C36.7886 28.328 37.7806 28.92 37.9086 30.104H33.5566ZM49.5453 38.04V26.68H47.4013V27.8H47.3533C47.1453 27.336 46.1853 26.52 44.6973 26.52C42.7613 26.52 40.6973 27.96 40.6973 30.84C40.6973 33.72 42.7613 35.16 44.6973 35.16C46.1853 35.16 47.1453 34.344 47.3533 33.88H47.4013V38.04H49.5453ZM42.8093 30.84C42.8093 29.288 43.9293 28.44 45.1293 28.44C46.3293 28.44 47.4493 29.272 47.4493 30.84C47.4493 32.408 46.3293 33.24 45.1293 33.24C43.9293 33.24 42.8093 32.392 42.8093 30.84ZM59.0154 26.68H56.8714V31.224C56.8714 32.44 56.1994 33.24 55.0954 33.24C53.9754 33.24 53.3194 32.44 53.3194 31.224V26.68H51.1754V31.576C51.1754 34.104 52.6154 35.16 54.3274 35.16C55.5754 35.16 56.4074 34.6 56.8714 33.864V35H59.0154V26.68ZM64.5801 35.16C66.0521 35.16 67.2521 34.552 67.9401 33.688L66.9641 32.648C66.3561 33.176 65.6361 33.4 64.8201 33.4C63.5721 33.4 62.5801 32.808 62.2761 31.672H68.5001C68.9641 28.008 66.5641 26.52 64.4521 26.52C62.3241 26.52 60.2441 28.04 60.2441 30.84C60.2441 33.608 62.2921 35.16 64.5801 35.16ZM62.2441 30.104C62.5161 28.904 63.4761 28.328 64.4681 28.328C65.4761 28.328 66.4681 28.92 66.5961 30.104H62.2441ZM72.1904 35.16C73.9344 35.16 75.3584 34.264 75.3584 32.6C75.3584 31.128 74.2384 30.52 73.2144 30.152L72.2864 29.8C71.6304 29.576 71.4224 29.272 71.4224 28.92C71.4224 28.52 71.7584 28.2 72.3184 28.2C72.7664 28.2 73.1984 28.408 73.4224 29.08L75.1024 28.648C74.8304 27.368 73.7264 26.52 72.2224 26.52C70.6544 26.52 69.3424 27.416 69.3424 28.904C69.3424 29.912 69.9184 30.792 71.2944 31.288L72.3184 31.672C72.9744 31.912 73.2304 32.2 73.2304 32.6C73.2304 33.192 72.7024 33.464 72.1584 33.464C71.3424 33.464 70.9424 32.904 70.7824 32.36L69.0704 32.824C69.3264 34.36 70.5424 35.16 72.1904 35.16ZM79.6414 35.096C80.1694 35.096 80.7774 35 81.0974 34.712V33.064C80.7934 33.16 80.5054 33.192 80.3134 33.192C79.6094 33.192 79.3694 32.776 79.3694 32.344V28.392H81.0814V26.68H79.3694V24.552H77.2094V26.68H76.0254V28.392H77.2094V32.696C77.2094 34.408 78.2334 35.096 79.6414 35.096ZM89.675 35.16C91.147 35.16 92.459 34.456 93.259 33.112L91.691 32.104C91.259 32.76 90.555 33.224 89.691 33.224C88.491 33.224 87.403 32.328 87.403 30.84C87.403 29.352 88.491 28.456 89.691 28.456C90.555 28.456 91.259 28.92 91.691 29.576L93.259 28.568C92.459 27.208 91.147 26.52 89.675 26.52C87.483 26.52 85.291 28.024 85.291 30.84C85.291 33.656 87.483 35.16 89.675 35.16ZM97.9004 35.16C99.3884 35.16 100.348 34.344 100.556 33.88H100.604V35H102.748V26.68H100.604V27.8H100.556C100.348 27.336 99.3884 26.52 97.9004 26.52C95.9644 26.52 93.9004 27.96 93.9004 30.84C93.9004 33.72 95.9644 35.16 97.9004 35.16ZM96.0124 30.84C96.0124 29.288 97.1324 28.44 98.3324 28.44C99.5324 28.44 100.652 29.272 100.652 30.84C100.652 32.408 99.5324 33.24 98.3324 33.24C97.1324 33.24 96.0124 32.392 96.0124 30.84ZM104.379 35H106.523V23.64H104.379V35ZM108.16 35H110.304V23.64H108.16V35ZM115.238 23.64V35H117.382V33.88H117.43C117.638 34.344 118.598 35.16 120.086 35.16C122.022 35.16 124.086 33.72 124.086 30.84C124.086 27.96 122.022 26.52 120.086 26.52C118.598 26.52 117.638 27.336 117.43 27.8H117.382V23.64H115.238ZM117.334 30.84C117.334 29.272 118.454 28.44 119.654 28.44C120.854 28.44 121.974 29.288 121.974 30.84C121.974 32.392 120.854 33.24 119.654 33.24C118.454 33.24 117.334 32.408 117.334 30.84ZM128.916 35.16C130.404 35.16 131.364 34.344 131.572 33.88H131.62V35H133.764V26.68H131.62V27.8H131.572C131.364 27.336 130.404 26.52 128.916 26.52C126.98 26.52 124.916 27.96 124.916 30.84C124.916 33.72 126.98 35.16 128.916 35.16ZM127.028 30.84C127.028 29.288 128.148 28.44 129.348 28.44C130.548 28.44 131.668 29.272 131.668 30.84C131.668 32.408 130.548 33.24 129.348 33.24C128.148 33.24 127.028 32.392 127.028 30.84ZM139.378 35.16C140.85 35.16 142.162 34.456 142.962 33.112L141.394 32.104C140.962 32.76 140.258 33.224 139.394 33.224C138.194 33.224 137.106 32.328 137.106 30.84C137.106 29.352 138.194 28.456 139.394 28.456C140.258 28.456 140.962 28.92 141.394 29.576L142.962 28.568C142.162 27.208 140.85 26.52 139.378 26.52C137.186 26.52 134.994 28.024 134.994 30.84C134.994 33.656 137.186 35.16 139.378 35.16ZM144.191 35H146.335V32.952L147.375 31.8L149.983 35H152.383L148.703 30.344L152.015 26.68H149.455L146.335 30.216V23.64H144.191V35Z" fill="white"/>
<defs>
<radialGradient id="paint0_radial_1842_1584" cx="0" cy="0" r="1" gradientUnits="userSpaceOnUse" gradientTransform="translate(48.8015 48.1969) rotate(-34.8534) scale(84.3372 152.377)">
<stop stop-color="#3E67FF"/>
<stop offset="1" stop-color="#E47298"/>
</radialGradient>
</defs>
</svg>
