<svg width="40" height="40" viewBox="0 0 40 40" fill="none" xmlns="http://www.w3.org/2000/svg">
<g opacity="0.5">
<path d="M36.4632 9.22931C35.2326 9.76015 33.8934 10.1422 32.514 10.291C33.9461 9.44018 35.0186 8.09604 35.5302 6.51075C34.1863 7.31019 32.7141 7.87077 31.1789 8.16762C30.5372 7.48165 29.7612 6.93518 28.8991 6.56226C28.037 6.18933 27.1073 5.99794 26.168 6.00002C22.3677 6.00002 19.3113 9.08051 19.3113 12.8607C19.3113 13.3916 19.3757 13.9224 19.4802 14.4332C13.7898 14.1356 8.7146 11.417 5.34053 7.25473C4.72574 8.30482 4.40357 9.50046 4.40754 10.7173C4.40754 13.098 5.61802 15.1973 7.4639 16.4319C6.37609 16.389 5.31376 16.09 4.3633 15.5592V15.6436C4.3633 18.9775 6.71992 21.7403 9.86073 22.3757C9.27101 22.5289 8.66435 22.6072 8.05506 22.6089C7.60867 22.6089 7.18641 22.5647 6.76013 22.5044C7.62878 25.2229 10.1583 27.1975 13.1705 27.2619C10.8138 29.1077 7.86203 30.1935 4.65687 30.1935C4.08179 30.1935 3.55095 30.1734 3 30.1091C6.04028 32.0595 9.64759 33.1856 13.5324 33.1856C26.1439 33.1856 33.0449 22.7376 33.0449 13.6691C33.0449 13.3715 33.0449 13.0739 33.0247 12.7763C34.3599 11.7991 35.5302 10.5886 36.4632 9.22931Z" fill="white"/>
</g>
</svg>
